<?xml version="1.0" standalone="no"?>
<!DOCTYPE svg PUBLIC "-//W3C//DTD SVG 20010904//EN"
 "http://www.w3.org/TR/2001/REC-SVG-20010904/DTD/svg10.dtd">
<svg version="1.0" xmlns="http://www.w3.org/2000/svg"
 width="70.000000pt" height="70.000000pt" viewBox="0 0 70.000000 70.000000"
 preserveAspectRatio="xMidYMid meet">
<metadata>
Created by potrace 1.11, written by Peter Selinger 2001-2013
</metadata>
<g transform="translate(0.000000,70.000000) scale(0.100000,-0.100000)"
fill="#000000" stroke="none">
<path d="M248 692 c-10 -2 -18 -8 -18 -13 0 -6 -4 -8 -9 -5 -10 7 -93 -45
-128 -80 -14 -14 -40 -54 -59 -90 -32 -62 -33 -68 -31 -162 3 -86 6 -103 31
-147 30 -52 66 -102 66 -92 0 3 11 -5 25 -19 48 -47 131 -78 223 -81 45 -1 82
2 82 7 0 5 9 7 20 5 11 -2 20 0 20 6 0 5 8 9 19 9 10 0 24 7 31 15 7 8 17 15
23 15 32 0 147 157 141 193 -1 9 2 17 8 17 14 0 6 189 -9 198 -6 4 -13 16 -15
27 -1 11 -5 22 -8 25 -3 3 -17 21 -30 40 -14 19 -35 44 -49 55 -33 27 -145 89
-137 76 4 -6 2 -11 -3 -11 -6 0 -11 5 -11 11 0 9 -140 11 -182 1z m152 -60
c25 -2 63 -14 85 -27 46 -27 105 -80 105 -93 0 -5 7 -15 15 -22 8 -6 14 -15
13 -18 0 -4 1 -9 2 -12 2 -6 9 -33 13 -55 2 -8 6 -17 10 -21 3 -4 4 -12 0 -17
-4 -6 -7 -29 -8 -52 -3 -50 -43 -130 -87 -171 -33 -32 -118 -80 -118 -68 0 4
-6 2 -12 -4 -11 -8 -121 -10 -138 -2 -3 1 -8 2 -12 1 -10 -1 -79 39 -109 64
-26 21 -94 115 -84 115 3 0 3 6 -1 12 -17 26 -19 119 -5 166 1 1 1 5 2 10 3
19 41 83 67 112 36 39 105 76 157 84 21 4 41 9 44 11 2 3 7 2 10 -2 3 -5 26
-9 51 -11z"/>
<path d="M164 482 c-81 -42 -63 -117 37 -153 33 -12 62 -25 64 -30 6 -9 -34
-39 -53 -39 -7 0 -10 5 -6 12 4 7 3 8 -5 4 -6 -4 -23 2 -37 13 -28 22 -38 21
-54 -9 -9 -16 -5 -23 24 -43 45 -30 110 -34 152 -8 61 38 45 118 -28 141 -24
7 -47 14 -53 14 -5 1 -16 7 -23 14 -34 31 44 54 81 23 10 -8 18 -7 29 2 16 13
32 48 20 45 -4 -1 -17 3 -30 10 -34 20 -85 21 -118 4z"/>
<path d="M430 491 c0 -4 -13 -12 -29 -18 -38 -14 -65 -57 -66 -104 0 -22 -4
-39 -10 -39 -5 0 -4 -4 3 -9 8 -4 13 -10 12 -12 -4 -10 17 -47 39 -69 21 -21
34 -25 89 -25 61 0 65 2 98 37 19 21 35 47 35 58 2 26 2 48 0 58 -2 13 -132 7
-141 -8 -12 -20 -1 -40 24 -41 11 -1 26 -2 31 -4 6 -1 16 -3 23 -3 11 -2 11
-4 0 -15 -20 -21 -53 -36 -69 -33 -54 11 -74 34 -77 86 -4 66 59 106 119 75
26 -14 32 -14 50 -1 20 14 20 14 -8 40 -15 14 -37 26 -48 27 -11 1 -32 2 -47
3 -16 2 -28 0 -28 -3z"/>
</g>
</svg>
